<svg xmlns="http://www.w3.org/2000/svg" viewBox="0 0 27 32"><title>taktik</title><path d="M28.5,34H7.5a3,3,0,0,1-3-3V5a3,3,0,0,1,3-3h21a3,3,0,0,1,3,3V31A3,3,0,0,1,28.5,34ZM7.5,4a1,1,0,0,0-1,1V31a1,1,0,0,0,1,1h21a1,1,0,0,0,1-1V5a1,1,0,0,0-1-1H7.5Z" transform="translate(-4.5 -2)"/><path d="M18.71,17.29L17.41,16l1.29-1.29a1,1,0,0,0-1.41-1.41L16,14.59l-1.29-1.29a1,1,0,0,0-1.41,1.41L14.59,16l-1.29,1.29a1,1,0,1,0,1.41,1.41L16,17.41l1.29,1.29A1,1,0,0,0,18.71,17.29Z" transform="translate(-4.5 -2)"/><path d="M12.5,23A3.5,3.5,0,1,0,16,26.5,3.5,3.5,0,0,0,12.5,23Zm0,5A1.5,1.5,0,1,1,14,26.5,1.5,1.5,0,0,1,12.5,28Z" transform="translate(-4.5 -2)"/><path d="M25.37,10.21a1,1,0,0,0-1.85.75q0.17,0.43.31,0.86a1,1,0,0,0,1,.7,1,1,0,0,0,.3,0,1,1,0,0,0,.66-1.25C25.63,10.89,25.51,10.55,25.37,10.21Z" transform="translate(-4.5 -2)"/><path d="M22.24,21.36a8.61,8.61,0,0,1-.58.68,1,1,0,0,0,1.45,1.38,11,11,0,0,0,.72-0.84A1,1,0,0,0,22.24,21.36Z" transform="translate(-4.5 -2)"/><path d="M26.3,14.41a1,1,0,0,0-1.05-1,1,1,0,0,0-.95,1c0,0.19,0,.31,0,0.49v0.25a0.81,0.81,0,0,0,1,.79h0a0.83,0.83,0,0,0,1-.74V15.08C26.32,14.86,26.31,14.63,26.3,14.41Z" transform="translate(-4.5 -2)"/><path d="M19.54,23.68a8.83,8.83,0,0,1-.81.4,1,1,0,1,0,.79,1.84q0.51-.22,1-0.49A1,1,0,0,0,19.54,23.68Z" transform="translate(-4.5 -2)"/><path d="M25.12,17.47a1,1,0,0,0-1.25.67c-0.09.29-.19,0.58-0.3,0.86a1,1,0,0,0,.56,1.3,1,1,0,0,0,.37.07,1,1,0,0,0,.93-0.63c0.13-.34.25-0.68,0.35-1A1,1,0,0,0,25.12,17.47Z" transform="translate(-4.5 -2)"/><path d="M21.89,11H22a0.5,0.5,0,0,0,.45-0.29l0.87-1.89,2.11,0a0.5,0.5,0,0,0,.19-1L22.24,6.41a0.5,0.5,0,0,0-.7.45l0,3.68A0.5,0.5,0,0,0,21.89,11Z" transform="translate(-4.5 -2)"/></svg>