<?xml version="1.0" encoding="UTF-8" standalone="no"?>
<svg width="48px" height="48px" viewBox="0 0 48 48" version="1.1" xmlns="http://www.w3.org/2000/svg" xmlns:xlink="http://www.w3.org/1999/xlink">
    <!-- Generator: Sketch 39.1 (31720) - http://www.bohemiancoding.com/sketch -->
    <title>icon_instagram</title>
    <desc>Created with Sketch.</desc>
    <defs></defs>
    <g id="Page-1" stroke="none" stroke-width="1" fill="none" fill-rule="evenodd">
        <g id="icon_instagram" fill="#fff">
            <path d="M34.1194666,15.6403809 C34.1196208,16.3892832 33.6685911,17.0645223 32.9767251,17.3511859 C32.2848591,17.6378496 31.4884343,17.4794735 30.9588804,16.9499196 C30.4293265,16.4203657 30.2709504,15.6239409 30.5576141,14.9320749 C30.8442777,14.2402089 31.5195168,13.7891792 32.2684191,13.7893334 C33.2906372,13.7895437 34.1192563,14.6181628 34.1194666,15.6403809 L34.1194666,15.6403809 L34.1194666,15.6403809 Z M40,24 L39.9996191,24.0233143 L39.8944762,30.7360762 C39.8376528,35.7702276 35.7705324,39.8373481 30.7363809,39.8941715 L24,40 L23.9766857,39.9995428 L17.2639238,39.8947047 C12.2296956,39.8378861 8.16244131,35.7708349 8.10537149,30.7366095 L8,24 L8.00045716,23.9766857 L8.10529527,17.2636953 C8.16252625,12.2295376 12.2296871,8.16257978 17.2638476,8.1056 L24,8 L24.0233143,8.00045716 L30.7360762,8.10529527 C35.7701599,8.16227971 39.8371869,12.2293068 39.8941715,17.2633905 L40,24 L40,24 Z M37.0200381,24 L36.9153524,17.3104762 C36.8766893,13.8881763 34.1118233,11.1232764 30.6895238,11.0845715 L24,10.9801143 L17.3104762,11.0845715 C13.888185,11.1233553 11.123321,13.8881855 11.0844953,17.3104762 L10.9800381,24 L11.0844953,30.6895238 C11.1232001,34.1118653 13.8881341,36.8767655 17.3104762,36.9154285 L24,37.0198857 L30.6895238,36.9154285 C34.1118742,36.8768445 36.8768102,34.1118746 36.9153524,30.6895238 L37.0200381,24 L37.0200381,24 Z M32.2163809,24 C32.2163809,27.3232537 30.2144972,30.3192769 27.1442083,31.5910239 C24.0739193,32.8627709 20.5398687,32.1597917 18.1899843,29.8098857 C15.8401001,27.4599795 15.1371536,23.9259223 16.4089292,20.8556452 C17.6807046,17.785368 20.6767463,15.783512 24,15.7835428 C28.5356881,15.7886655 32.2113004,19.4643119 32.2163809,24 L32.2163809,24 L32.2163809,24 Z M29.2368,24 C29.2368,21.8818743 27.9608678,19.9723145 26.0039719,19.16175 C24.0470761,18.3511855 21.7945964,18.7992444 20.2968662,20.2969962 C18.7991361,21.7947482 18.35111,24.0472345 19.161703,26.0041185 C19.9722959,27.9610026 21.8818743,29.2369071 24,29.2368762 C26.8908297,29.2335172 29.2334489,26.8908298 29.2367238,24 L29.2368,24 L29.2368,24 Z" id="Shape"></path>
        </g>
    </g>
</svg>