<?xml version="1.0" encoding="UTF-8" standalone="no"?>
<svg width="48px" height="48px" viewBox="0 0 48 48" version="1.1" xmlns="http://www.w3.org/2000/svg" xmlns:xlink="http://www.w3.org/1999/xlink">
<!-- Generator: Sketch 39.1 (31720) - http://www.bohemiancoding.com/sketch -->
<title>icon_youtube</title>
<desc>Created with Sketch.</desc>
<defs></defs>
<g id="Page-1" stroke="none" stroke-width="1" fill="none" fill-rule="evenodd">
    <g id="icon_youtube" fill="#fff">
        <path d="M31.68 4.85a6.92 6.92 0 0 0-1.27-3.18A4.58 4.58 0 0 0 27.2.32C22.72 0 16 0 16 0S9.28 0 4.8.32a4.58 4.58 0 0 0-3.21 1.36A6.92 6.92 0 0 0 .32 4.86 48.4 48.4 0 0 0 0 10.03v2.43a48.4 48.4 0 0 0 .32 5.18 6.92 6.92 0 0 0 1.27 3.18 5.43 5.43 0 0 0 3.53 1.37c2.56.24 10.88.32 10.88.32s6.72 0 11.2-.33a4.58 4.58 0 0 0 3.21-1.36 6.92 6.92 0 0 0 1.27-3.18 48.46 48.46 0 0 0 .32-5.18v-2.43a48.46 48.46 0 0 0-.32-5.18zm-19 10.55v-9l8.66 4.54z"></path>
    </g>
</g>
</svg>