<?xml version="1.0" encoding="UTF-8" standalone="no"?>
<svg width="48px" height="48px" viewBox="0 0 48 48" version="1.1" xmlns="http://www.w3.org/2000/svg" xmlns:xlink="http://www.w3.org/1999/xlink">
    <!-- Generator: Sketch 39.1 (31720) - http://www.bohemiancoding.com/sketch -->
    <title>icon_twitter</title>
    <desc>Created with Sketch.</desc>
    <defs></defs>
    <g id="Page-1" stroke="none" stroke-width="1" fill="none" fill-rule="evenodd">
        <g id="icon_twitter" fill="#000">
            <path d="M40,14.0782222 C38.8239999,14.6008889 37.5573333,14.9537778 36.2293333,15.1119999 C37.5857777,14.3004444 38.6257777,13.0142222 39.1164445,11.4799999 C37.8479999,12.2328889 36.4408888,12.7795556 34.9475555,13.0737778 C33.7502222,11.7982222 32.0435555,11 30.1555555,11 C26.5306667,11 23.5911111,13.9395555 23.5911111,17.5653333 C23.5911111,18.0791111 23.6488889,18.5795556 23.7608889,19.0613333 C18.3048889,18.7875556 13.4666667,16.1742222 10.2284444,12.2017777 C9.66311116,13.1706667 9.33955552,14.2986667 9.33955552,15.5031111 C9.33955552,17.7804444 10.4986667,19.7902222 12.2604444,20.9671111 C11.1848889,20.9324444 10.1724444,20.6373334 9.28711116,20.1457777 C9.28622225,20.1733333 9.28622225,20.2008889 9.28622225,20.2293333 C9.28622225,23.4097778 11.5493333,26.0622223 14.5528889,26.6666667 C14.0017777,26.816 13.4222222,26.8968889 12.8231111,26.8968889 C12.4,26.8968889 11.9884445,26.856 11.5875556,26.7786666 C12.424,29.3866667 14.848,31.2853333 17.72,31.3377778 C15.4728889,33.0986666 12.6426667,34.1484444 9.56622226,34.1484444 C9.03644445,34.1484444 8.5137778,34.1173334 8,34.056 C10.9057778,35.92 14.3564445,37.0053333 18.064,37.0053333 C30.1404444,37.0053333 36.7395556,27.0017778 36.7395556,18.3297778 C36.7395556,18.0453333 36.7333333,17.7617778 36.7217777,17.4791111 C38.0044445,16.5555555 39.1173334,15.3982222 39.9973333,14.0817777" id="Path"></path>
        </g>
    </g>
</svg>