<svg xmlns="http://www.w3.org/2000/svg" viewBox="0 0 32.01 28">
    <title>warnung</title>
    <circle cx="16" cy="22" r="1"/>
    <path d="M18,22a1,1,0,0,1-1-1V12a1,1,0,0,1,2,0v9A1,1,0,0,1,18,22Z" transform="translate(-2 -3)"/>
    <path d="M31.05,31H4.94A2.9,2.9,0,0,1,2.4,29.51a3,3,0,0,1,0-3l13.06-22a2.92,2.92,0,0,1,5,0l13.05,22a3,3,0,0,1,0,3A2.91,2.91,0,0,1,31.05,31ZM18,5a0.92,0.92,0,0,0-.8.47l-13.06,22h0a1,1,0,0,0,0,1,0.92,0.92,0,0,0,.81.48H31.05a0.92,0.92,0,0,0,.81-0.48,1,1,0,0,0,0-1L18.8,5.47A0.92,0.92,0,0,0,18,5ZM3.29,27h0Z"
          transform="translate(-2 -3)"/>
</svg>