<svg id="Layer_2" data-name="Layer 2" xmlns="http://www.w3.org/2000/svg" width="330.93mm" height="169.78mm" viewBox="0 0 938.07 481.27"><defs><style>.cls-1{fill:#fff;}.cls-2{fill:#001d46;}.cls-3,.cls-4{fill:#0c2043;}.cls-4,.cls-6{fill-rule:evenodd;}.cls-5{fill:#d9dada;}.cls-6{fill:#dd013f;}</style></defs><title>logo_wappen</title><path class="cls-1" d="M821.15,180.31V323.36c6,2.55,14.28,6.65,20.14,9.49l-0.32-2c-0.14-22.27,6.52-19.26,21.45-25.69,3.72-1.61,4.89-8.57,10.92-9.11,7.16-.62,23.41,2.22,29.83,5.46,4,2,4.93,5,6.38,8.69,1.52,4,9,6.91,10.72,11.63,3.35,9-.31,21.78-9.81,25.48-3.34,1.31-18.81.45-18.81,0.45-0.06,3.09.06,7.78-.16,10.87-0.12,1.56,0,4.26,0,4.26s3.06,1,4.58,1.41c25.51,6.8,164.68,48.47,168,56.23a1.41,1.41,0,0,1-1,2.13c-3.42.34-91-19.82-107.62-22.87-18.83-3.46-33.59-6.51-57.26-10l0.13,1.33c0,7.66-1.64,7.61-8,9.81l0.21,1.42c8,1.61,33.12,5.41,38.63,9.1,6,4,20.22-1,30.14,12.54,2.6,3.55,2.66,18.24.1,21.75-4.18,5.72-8.52,3.23-14.25,4-3.48.49-5.21,3.89-8.09,5.46s-6.79.95-9.91,1c-7.49.17-9.9-6.58-15.17-10.21-2.54-1.75-5.59-.57-8.4-1.31-4.23-1.12-7-6-10.72-7.89-2.18-1.12-7.33-.76-9.4.51-13.33,8.2-48.11-.22-61.69-8.59l0.45,86.65a64.71,64.71,0,0,1-8.74,29.49C770.84,618.08,681,661.53,596,661.58h-1.45c-85-.05-174.83-42.19-217.46-115.38a68,68,0,0,1-8.74-30.81l0.44-86.65c-13.59,8.37-48.35,16.79-61.69,8.59-2.07-1.27-7.23-1.63-9.4-.51-3.72,1.93-6.48,6.77-10.72,7.89-2.82.74-5.85-.44-8.39,1.31-5.28,3.63-7.69,10.38-15.17,10.21-3.13-.07-7.08.53-9.91-1s-4.61-5-8.09-5.46c-5.74-.8-10.08,1.69-14.26-4-2.56-3.51-2.51-18.2.1-21.75,9.92-13.49,24.09-8.5,30.14-12.54,5.52-3.69,30.65-7.49,38.63-9.1l0.2-1.42c-6.36-2.2-8-2.14-8-9.81l0.14-1.33c-23.67,3.52-38.43,6.57-57.26,10-16.6,3.05-104.21,23.21-107.63,22.87a1.41,1.41,0,0,1-1-2.12c3.3-7.76,142.46-49.43,168-56.23,1.52-.4,4.58-1.41,4.58-1.41s0.15-2.7,0-4.26c-0.22-3.09-.1-7.78-0.16-10.87,0,0-15.46.86-18.81-.45-9.51-3.7-13.16-16.46-9.81-25.48,1.75-4.72,9.19-7.68,10.72-11.63,1.45-3.74,2.4-6.68,6.37-8.69,6.42-3.25,22.68-6.08,29.83-5.46,6,0.53,7.2,7.5,10.92,9.11,14.93,6.43,21.58,3.41,21.44,25.69l-0.31,2c5.86-2.84,14.14-6.94,20.14-9.49V180.31H821.15Z" transform="translate(-126.24 -180.31)"/><path class="cls-2" d="M602.82,521.54l6.45,74.18,8.51-.74-6.45-74.18ZM544.3,511.25L520,581.63l22.46,7.75,7.76-22.48-8.07-2.78-5,14.4-6.31-2.18,21.5-62.3Zm24.53,16.25L562,585.38a8.09,8.09,0,0,0,7.06,9l15.57,1.85,1-8.49-15.12-1.79,2.88-24.24L584.7,563l1-8.49-11.33-1.35L577.25,529l15.11,1.8,1-8.48-15.57-1.85A8.07,8.07,0,0,0,568.82,527.5ZM689,483.05l-6.06,6,52.11,52.54,0.33,0.33,6.06-6-52.11-52.54Zm-41.53,37.13a8,8,0,0,0-7.71-5.73,8.21,8.21,0,0,0-2.37.36l-15,4.58L644,590.15l0.14,0.44,8.16-2.49-9.62-31.51,6.84-2.09a8.06,8.06,0,0,0,5.36-10.09Zm-7.29,28.23-7.12-23.34,6.39-2,7.13,23.34Zm122.33-59.57L737,472.73l-6.31,10,7.23,4.56,1.75-2.78,20.64,13-3.56,5.65-48.52-30.59,3.57-5.65,9.75,6.15,4.55-7.22-7.44-4.7a11.88,11.88,0,1,0-12.68,20.1l43.9,27.68A11.88,11.88,0,1,0,762.51,488.84ZM692,543.9l8.09,12.91-5.37,3.37L676.71,503.4l-4.34-7-20.13,12.62,12.64,20.15,7.24-4.54L664,511.77l5.37-3.37,18.06,56.79,4.34,7,20.13-12.62-12.64-20.15Z" transform="translate(-126.24 -180.31)"/><path class="cls-3" d="M401.4,540.57l0.23,0.33c43.57,65,115.92,97.31,193.52,97.31S745.1,606,788.68,540.9l0.22-.33,0.2-.35c6.53-11.34,9.39-18.81,9.39-42.61v-63H786.7v63c0,22.38-2.6,27.65-7.81,36.74-39.88,59.54-107.3,92.08-183.75,92.08s-143.86-32.54-183.73-92.08c-5.22-9.09-7.82-14.36-7.82-36.74V434.48H391.81v63.13c0,23.79,2.86,31.26,9.39,42.61Z" transform="translate(-126.24 -180.31)"/><polygon class="cls-3" points="262.77 134.14 262.77 19.96 675.04 19.96 675.04 134.23 681.57 137.26 681.57 13.43 256.24 13.43 256.24 137.21 262.77 134.14"/><polygon class="cls-3" points="265.57 22.76 265.57 132.83 277.35 127.31 277.35 34.55 660.46 34.55 660.46 127.47 672.25 132.94 672.25 22.76 265.57 22.76"/><path class="cls-3" d="M801.28,434.61v63c0,24.48-3,32.21-9.75,44l-0.25.44-0.28.41C746.9,608.29,673.7,641,595.15,641S443.39,608.29,399.3,542.46L399,542l-0.25-.44c-6.79-11.8-9.76-19.53-9.76-44V434.48h-6.54v63.13c0,25.93,3.4,34.69,10.63,47.27l0.36,0.63,0.4,0.6c45.3,67.64,120.54,101.45,201.28,101.45s156-33.81,201.29-101.45l0.4-.6,0.36-.62c7.22-12.57,10.62-21.33,10.62-47.27v-63h-6.54Z" transform="translate(-126.24 -180.31)"/><path class="cls-4" d="M594.86,256.3a108.27,108.27,0,0,1,40.5,7.71A50.71,50.71,0,0,1,629,279c-22.6-2.91-47.75-.53-47.75-0.53L560.37,262a108.32,108.32,0,0,1,34.49-5.68h0Z" transform="translate(-126.24 -180.31)"/><path class="cls-5" d="M690.91,415.23c-8.43-2.11-16.22-6.15-24.6-8.49-2.44,1.3-4.35,2.47-6,3.51a115.41,115.41,0,0,1-33.52,26.16c-31,16.66-69.13,16.92-100.72,2.73A109.79,109.79,0,0,1,506.74,428a108.37,108.37,0,0,0,81.31,45l3.66-.06a1.57,1.57,0,0,0,.93.27,113.32,113.32,0,0,0,58.73-16.57,103.57,103.57,0,0,0,39.16-40.78l1-.48C691.35,415.36,691.14,415.29,690.91,415.23Z" transform="translate(-126.24 -180.31)"/><path class="cls-3" d="M634.94,348.36c5.61,11.73,12.39,24.1,17,32.28,6.22-9.12,7.14-16.11,12.75-31.94,2.18-6.13,9.84-14.9,17-22.07a257.23,257.23,0,0,0-25.87-14.18C644.43,328.51,634.94,348.36,634.94,348.36Z" transform="translate(-126.24 -180.31)"/><path class="cls-3" d="M521.08,285.26A108.86,108.86,0,0,0,497.53,317c1.46,1.16,2.82,2.29,4.12,3.41,0.89-1.16,1.8-2.32,2.73-3.49A293.78,293.78,0,0,1,521.08,285.26Z" transform="translate(-126.24 -180.31)"/><path class="cls-3" d="M588.23,349.2s-13.52-21.53-27.66-37.59c0,0-29.79,13.3-40.77,19,0,0-.38,3.85-0.66,10.14,6.64,11.28,9.87,23.38,18.32,40.79a23.7,23.7,0,0,1,5.15,5c5.89,1.67,12.72,3.49,20.28,5.32C562.89,391.87,581.68,361.89,588.23,349.2Z" transform="translate(-126.24 -180.31)"/><path class="cls-4" d="M585.69,429.67l46.91-1.27L641.68,454C624,464.52,602.61,470,602.61,470c-22.41-4.87-35.29-14.58-35.29-14.58l18.37-25.77h0Z" transform="translate(-126.24 -180.31)"/><path class="cls-3" d="M508.73,411.31c-3.92,1.55-7.68,3.06-9.95,3.79l-0.76.23a93.68,93.68,0,0,0,13.25,18.52,90.14,90.14,0,0,0,15.38,13.28,21.69,21.69,0,0,0,3.07-2.68S516.45,425.36,508.73,411.31Z" transform="translate(-126.24 -180.31)"/><path class="cls-6" d="M244.08,427.78c-5.16,1.42-3.64,7.38-4.76,11.53a1.35,1.35,0,0,0,1,.81c1.92-.81,5.05-0.2,6.47-2,0.61-2.12,1.41-3.64,1.62-6.07C247.92,430.21,246,428,244.08,427.78Zm528.84-22.36c-2.83.62-5.66,1.92-8.9,1.12-2.92,0-7.68-2.63-9,1.31-0.51,2.53-1.92,4.65-2.53,7.08,0,1.31,1.21,2.53,2.42,3.13,1.82,0.4,4,1.42,5.68,1.11,3-2.12,2.83-6,5.86-8.19,1.62,0.4,1.82,2.63,3.64,2.43a6,6,0,0,0,4.55-3,4.42,4.42,0,0,0,.1-3.75A3.3,3.3,0,0,0,772.92,405.42Zm97-56.52c0.41,1.06,2.51,3.3,1.11,4.25-2.95,2-17.8-.68-18.61,1.62,0.83,3.11,9.67,5.47,12.54,6.57,3.39,1.29,6.53,2.26,10.11.51,4-2,6.59-7.25,5.87-11.63a30.3,30.3,0,0,0-3.74-8.59c-1.16-1.55-10.93-9.28-8.19-10.32,3.29,1.05,7.78.11,10.11,3.24,6.15,1.74,12.72,2.81,19,3.95,4,0.73,8.63-.39,11-3.95,1.3-1.94,1.31-5.5.3-7.58-1.17-2.39-4.73-3.11-7-3.94-2.83.61,0.31,3.09-2.11,4.15l-5.47-.71c-3.44-3.55,3.74-3.06,4.14-5,0.59-2.75-2-5.29-.3-8a2.81,2.81,0,0,0-1.42-1.62c-2.82-1-19.63-5-22-4.85l-0.7.81c0.67,0.93,3.51,3.5,3.64,3.74,1.12,2-6.43,3.48-7.68,3.74-6,1.27-22.19,3.21-19.82,12.74C851.9,332.55,867.94,344,869.9,348.9ZM291.71,338.49c6.29-1.13,12.86-2.2,19-3.95,2.32-3.13,6.82-2.18,10.11-3.24,2.74,1-7,8.77-8.19,10.32a30.47,30.47,0,0,0-3.74,8.59c-0.72,4.38,1.87,9.68,5.87,11.63,3.58,1.75,6.73.79,10.11-.51,2.87-1.1,11.71-3.46,12.54-6.57-0.81-2.3-15.66.38-18.61-1.62-1.4-1,.69-3.19,1.11-4.25,2-4.94,18-16.35,19.11-20.83,2.37-9.54-13.78-11.47-19.82-12.74-1.25-.26-8.8-1.71-7.69-3.74,0.13-.24,3-2.81,3.64-3.74l-0.71-.81c-2.31-.18-19.12,3.85-21.94,4.85a2.79,2.79,0,0,0-1.42,1.62c1.71,2.7-.89,5.24-0.3,8,0.41,1.9,7.58,1.41,4.14,5l-5.46.71c-2.44-1.06.7-3.54-2.12-4.15-2.26.84-5.82,1.55-7,3.94-1,2.08-1,5.64.3,7.58C283.07,338.09,287.67,339.22,291.71,338.49Zm-34,85.65c-0.34-1.06-7,.12-7.38,1.41C249.81,427.45,256,428.38,257.73,424.14Zm674.37,0c1.72,4.25,7.92,3.31,7.39,1.41C939.12,424.26,932.44,423.08,932.1,424.14Zm13.65,3.64c-1.92.2-3.84,2.43-4.34,4.25,0.2,2.42,1,3.94,1.62,6.07,1.41,1.82,4.54,1.21,6.47,2a1.35,1.35,0,0,0,1-.81C949.4,435.16,950.91,429.2,945.75,427.78Zm74.78-20.52c-31.06-9.61-62.54-17.43-94-25.6-9.42-2.44-18.9-4.74-28.41-6.77-15.26-3.26-30.6-7.14-45.93-9.92-1.38-.25-3.16,0-3.83-1.61,0.52-2.86-2.7-3.32-4.65-4-4.67-1.51-9.31-3-14.05-4.33-3.46-1-6.94-2.83-10.42-3.55-4.39-.91-7.86-1-10.93-4.85l0.71-.41c4.16,1.65,10.83,5.22,15.17,2.33,2.07-1.37,4.23-5.07,3.24-7.58-0.73-1.89-3-2.14-4.64-2.84-6.82-3-13.5-6.63-20.16-9.95Q781.5,317.72,760.48,307c-6.39-3.23-13.62-7-20.63-8.49-5.71-1.25-12.21.34-17.19,3.34s-4.81,9.95-8.5,9.21a2.9,2.9,0,0,1-.91-2.13c-1.49-2.36-6.15,4.28-9.92,6.17-8.4,4.22-23.16,20.35-29.23,28-3.82,4.83-5.36,11-6.78,16.89l0.81,1.11c1.85,0.45,3.54-.31,5.15-1.11,1.54,0.39,1.4,2.32,2.23,3.43,6.13,8.26,22.44,3.46,31.36,6.47a0.78,0.78,0,0,1-.61,1.11c-4,.51-9.29-0.32-13.38-0.43-9.44-.25-18.88-0.36-28.3-0.88l-1.11.61c-0.88,1.93-6.06,13-6.88,14-1.26,1.39-3.13,2.46-4.47,4-3.65,4.08-6.3,9-10.9,12.22-1.38.95-4.13,1.47-4.75,3l0.7,0.81c13.93,1.13,15.34-13.48,24.67-16.79a0.88,0.88,0,0,1,.61,1.12,35.81,35.81,0,0,0-6.28,8.59c-5.44,11-9.32,7.67-14.55,12.75l0.8,1.21c15.43-.45,18.24-9.12,23.27-9.82,4.29-.59,20.37,6.93,25.69,8.4,2.66,0.73,5.3,1.64,8.1,1.6,0.95,0,2.21-.51,3-0.48,2.06,0.07,2.47,3.75,7,1.62,2.71-1.29,2.9-5.15,3.24-7.79,0.41-3.17-3.52-5.87-3.24-7.59,0.4-2.43,3.46.82,4.15-1.32,0.42-1.29-1.16-3.88-1.92-4.85-2-2.59-7.75-7-7-10.82a2.48,2.48,0,0,1,1.52-1.11L725,381.36c0.65,0.08,3.5,6.71,3.54,7.38,0,1-2.68,7.85-3.24,9.2-1.56,3.72-4.3,6.43-4.25,10.73,0.05,5.28,3.62,10.19,6.26,14.56,2.94,4.85,7.67,2.55,11.94,3.95,1.75,0.58,3.64,1.79,5.37,2.56A108.31,108.31,0,0,0,761.89,436c3.16,0.76,8-.3,9.91-3.23,1.36-2.15-3.23-2.8-1.21-5.16,1.08-1.26,2.43-1.18,3.95-1,3.24,0.36,19.9,2.38,21.64.5,0.58-.62-0.3-1.47-0.81-1.72-3.36-1.62-8.54-2.4-12.24-3.43-4.46-1.26-9.09-1.57-13.55-2.94-3.8-1.17-3.56,2.73-6.27,4.45-4.09,2.61-15-2.6-16.38-7.28-1.28-4.51,2.84-10.21,5.77-13.25,2.3-2.39,5.12-2.73,7.39-4.55,1.43-1.15.4-3.44,0.4-5,2.24-2.81,10.7,1.66,14.16.71,3.75-1,.95-6,4.16-7,2.8,0.8,5,2.83,7.78,3.83,2,0.75,5.64,1.13,7,2.93,1.07,1.43,0,3.43-.31,5,1,1.87,4.13,2.45,6.07,2.73,3.12,0.46,6.5.27,9.67,0.6s6.34,1.24,9.45,1.52l10.51,1c2.53,1.21-.61,3.39,1.72,8.29-2.5-.36-12.78-3.42-14,0,9.09,8.47,29.67,14.44,41.87,16.19a103.73,103.73,0,0,0,22.86.2c4.66-.38,5.65-4.68,8.5-5.26,3.63-.73,6.8,5.08,9.31,6.57,2.33,1.39,4.72,2.71,7.08,4,4.15,2.34,8.09-1.72,11.33.1,4,2.23,6.43,13.51,12.74,11.73a4.17,4.17,0,0,0,2.43-2.73c1.25-3.16-.45-6-1.21-9,1.18-2.79,5.21,1.53,5.05-1.42a3.76,3.76,0,0,0-1.82-1.22c-7.33-1.87-5.9-9.84-16.38-11.83-4.71-.89-9.42-2-14.16-2.93-1.33-.25-4.39.47-4.34-1.62l0.91-.71,8.39-.2-0.2-1.11c-13.43-1.68-26.61-5.5-40-7.09-1-.59-2.29-3.7-2.13-4.65,0.39-2.46,4.27,2.1,6.28-2.74,1.16-2.81-1.63-5.2.6-6.57,5.9,0.76,11.8,1.5,17.7,2.33-33.35-8-67-14.63-100.32-22.54-7.24-1.72-14.62-2.86-21.74-5.06l0.1-.8c29.42,4.13,58.54,11.22,88.09,14.36v-0.71c-16.34-3.11-32.5-7.27-48.86-10.22-24.37-4.39-48.94-8-73.42-11.79-16-2.45-32.21-5.44-48.32-6.81l-0.51,1.11a12.2,12.2,0,0,0,4,2.73,0.74,0.74,0,0,1-.1,1c-2-.22-11.22.37-11.23-1.82,3.41-3.23,4.25-4.92,9.2-4.45,7.71,0.72,15.48,1.85,23.16,2.83,44.25,5.68,88.82,11.61,132.78,19.22,46.38,8,92.78,16.25,138.54,27.38,7.27,1.77,56.31,15.13,58.27,14.68C1039.75,412.92,1023.58,408.2,1020.53,407.26Zm-333.47-9c-1.25.94-3.43,0.42-5,.21-1.87-1-2.29-3.22-2.5-5.31a1.73,1.73,0,0,1,.63-1.46A7.2,7.2,0,0,1,686,394C686.65,395.35,687.79,396.81,687.06,398.26Zm157,17.85c5,1,9.9,1.42,15,2.83a3.38,3.38,0,0,1,1.8,2.26,1.74,1.74,0,0,1-1.43.65l-19.73-5-2.21-1.46A43.89,43.89,0,0,1,844.06,416.11Zm-110-21.71a2.13,2.13,0,0,1,2-1.72c1.21,0.4,2.72.6,3.13,2l-4.66,10c-3.23,4.25-.9,10.11.21,14.36a1.4,1.4,0,0,1-1.21,1c-3.24-3.24-6.17-7.79-5-12.85Zm-37.32-55.82c-0.8-.1-3.32-0.35-2.91-1.77a2.55,2.55,0,0,1,1.72-.4l57.84,9.41,2.72,1.25S716.08,341.42,696.76,338.59Zm66.54-10.21c-10.21-2-20.72-4.39-30.75-7.18-0.77-.22-2.54-0.36-2.32-1.52,3.66-.71,20.45,3.73,24.67,5.15,1.88,0.63,3,.2,4.86,0a14.68,14.68,0,0,1,3.94,3.14Zm-343.56,85c1.82,0.2,2-2,3.64-2.43,3,2.23,2.83,6.07,5.87,8.19,1.62,0.3,3.84-.71,5.66-1.11,1.21-.61,2.42-1.82,2.42-3.13-0.61-2.43-2-4.55-2.53-7.08-1.31-3.95-6.07-1.31-9-1.31-3.23.81-6.06-.5-8.9-1.12a3.3,3.3,0,0,0-1.82,1.21,4.4,4.4,0,0,0,.1,3.75A6,6,0,0,0,419.75,413.42Zm128.84-12.95c-4.59-3.18-7.24-8.14-10.9-12.22-1.34-1.5-3.21-2.56-4.47-4-0.82-.91-6-12-6.87-14l-1.12-.61c-9.42.52-18.87,0.63-28.29,0.88-4.09.11-9.38,0.95-13.37,0.43a0.78,0.78,0,0,1-.61-1.11c8.92-3,25.22,1.79,31.35-6.48,0.83-1.12.7-3,2.22-3.43,1.62,0.8,3.31,1.55,5.16,1.11L522.5,360c-1.41-5.87-2.95-12.06-6.77-16.89-6.07-7.66-20.82-23.79-29.23-28-3.77-1.89-8.42-8.53-9.91-6.17a3,3,0,0,1-.91,2.13c-3.69.74-3.57-6.23-8.5-9.21s-11.48-4.58-17.19-3.34c-7,1.53-14.25,5.26-20.63,8.49q-21,10.66-42.14,21.2c-6.66,3.32-13.34,7-20.15,9.95-1.6.7-3.92,0.95-4.65,2.84-1,2.51,1.17,6.21,3.23,7.58,4.35,2.89,11-.68,15.17-2.33l0.71,0.41c-3.06,3.86-6.54,3.95-10.92,4.85-3.48.72-7,2.57-10.43,3.55-4.73,1.34-9.37,2.82-14,4.33-2,.63-5.17,1.09-4.65,4-0.67,1.59-2.44,1.36-3.83,1.61-15.32,2.78-30.66,6.66-45.92,9.92-9.51,2-19,4.32-28.42,6.77-31.45,8.16-62.93,16-94,25.6-3,.95-19.23,5.66-20.6,7,2,0.45,51-12.92,58.28-14.68,45.75-11.13,92.16-19.36,138.53-27.38,44-7.61,88.54-13.54,132.78-19.22,7.69-1,15.46-2.11,23.17-2.83,5-.46,5.79,1.22,9.2,4.45,0,2.19-9.18,1.6-11.23,1.82a0.73,0.73,0,0,1-.1-1,12.18,12.18,0,0,0,4-2.73l-0.51-1.11c-16.12,1.38-32.35,4.36-48.33,6.81-24.49,3.76-49,7.4-73.42,11.79-16.36,2.95-32.52,7.1-48.86,10.22v0.71c29.54-3.14,58.66-10.23,88.09-14.36l0.1,0.8c-7.12,2.2-14.51,3.34-21.74,5.06-33.34,7.91-67,14.58-100.33,22.54,5.9-.83,11.8-1.57,17.7-2.33,2.24,1.37-.55,3.76.61,6.57,2,4.84,5.87.29,6.27,2.74,0.16,1-1.12,4.06-2.13,4.65-13.44,1.59-26.62,5.4-40,7.09l-0.2,1.11,8.39,0.2,0.91,0.71c0,2.08-3,1.36-4.35,1.62-4.73.89-9.44,2-14.16,2.93-10.48,2-9,10-16.38,11.83a3.76,3.76,0,0,0-1.82,1.22c-0.16,2.95,3.88-1.37,5.06,1.42-0.77,3-2.47,5.84-1.22,9a4.18,4.18,0,0,0,2.43,2.73c6.31,1.77,8.79-9.5,12.74-11.73,3.23-1.82,7.17,2.24,11.33-.1,2.37-1.33,4.75-2.65,7.08-4,2.5-1.5,5.67-7.3,9.3-6.57,2.85,0.58,3.84,4.88,8.5,5.26a103.72,103.72,0,0,0,22.85-.2c12.21-1.75,32.79-7.72,41.87-16.19-1.17-3.42-11.46-.36-14,0,2.33-4.9-.82-7.08,1.72-8.29l10.52-1c3.11-.29,6.28-1.19,9.44-1.52s6.56-.15,9.67-0.6c1.93-.29,5.08-0.87,6.07-2.73-0.28-1.52-1.37-3.52-.3-5,1.34-1.8,4.94-2.18,7-2.93,2.74-1,5-3,7.79-3.83,3.2,1,.4,5.93,4.15,7,3.46,1,11.91-3.52,14.16-.71,0,1.51-1,3.8.41,5,2.27,1.82,5.08,2.16,7.38,4.55,2.93,3,7,8.74,5.76,13.25-1.33,4.69-12.29,9.9-16.38,7.28-2.71-1.72-2.47-5.62-6.27-4.45-4.46,1.36-9.08,1.68-13.55,2.94-3.69,1-8.88,1.81-12.24,3.43-0.51.25-1.39,1.1-.81,1.72,1.74,1.88,18.4-.14,21.64-0.5,1.52-.17,2.87-0.25,3.95,1,2,2.36-2.57,3-1.21,5.16,1.86,2.94,6.75,4,9.91,3.23a108,108,0,0,0,17.27-6.24c1.73-.77,3.62-2,5.38-2.56,4.27-1.4,9,.91,11.93-3.95,2.66-4.37,6.21-9.27,6.27-14.56,0-4.3-2.69-7-4.25-10.73-0.56-1.35-3.29-8.19-3.24-9.2,0-.67,2.89-7.3,3.54-7.38L483.56,379a2.46,2.46,0,0,1,1.51,1.11c0.79,3.78-4.94,8.22-7,10.82-0.77,1-2.34,3.57-1.92,4.85,0.7,2.14,3.75-1.11,4.14,1.32,0.29,1.72-3.64,4.42-3.23,7.59,0.34,2.63.53,6.5,3.23,7.79,4.51,2.13,4.92-1.55,7-1.62,0.81,0,2.07.47,3,.48,2.81,0,5.45-.87,8.11-1.6,5.31-1.47,21.4-9,25.68-8.4,5,0.7,7.84,9.37,23.27,9.82l0.81-1.22c-5.24-5.07-9.12-1.71-14.57-12.74a35.43,35.43,0,0,0-6.27-8.59,0.89,0.89,0,0,1,.61-1.12c9.33,3.3,10.75,17.91,24.68,16.79l0.71-.81C552.73,401.94,550,401.42,548.59,400.47ZM426.12,328a14.87,14.87,0,0,1,3.94-3.13c1.88,0.2,3,.63,4.86,0,4.22-1.43,21-5.86,24.68-5.15,0.22,1.15-1.56,1.3-2.33,1.52-10,2.78-20.53,5.19-30.74,7.18Zm67,10.62c-19.32,2.83-59.36,8.49-59.36,8.49l2.72-1.25,57.83-9.41a2.53,2.53,0,0,1,1.72.4C496.38,338.24,493.88,338.49,493.07,338.59ZM350.18,416.81l-19.72,5a1.73,1.73,0,0,1-1.43-.65,3.35,3.35,0,0,1,1.79-2.26c5.06-1.41,10-1.82,15-2.83a43.79,43.79,0,0,1,6.62-.77Zm106.08,3.29a1.42,1.42,0,0,1-1.22-1c1.12-4.24,3.45-10.11.21-14.36l-4.65-10c0.4-1.42,1.92-1.61,3.13-2a2.14,2.14,0,0,1,2,1.72l5.46,12.84C462.42,412.31,459.49,416.86,456.25,420.1Zm51.5-21.63c-1.56.21-3.74,0.73-5-.21-0.73-1.45.41-2.91,1-4.26a7.19,7.19,0,0,1,5.82-2.29,1.73,1.73,0,0,1,.63,1.46C510.05,395.25,509.63,397.43,507.76,398.47Z" transform="translate(-126.24 -180.31)"/><path class="cls-5" d="M688.26,320.37c1.2-1.1,2.33-2.12,3.31-3-0.48-.48.49-0.22,0.19-0.16l0.44-.35a109.52,109.52,0,0,0-7-12.27A115.42,115.42,0,0,1,688.26,320.37Z" transform="translate(-126.24 -180.31)"/><path class="cls-3" d="M494.26,473l-9-12.85-61,42.7,4.89,7,27-18.9,3.83,5.47-22.14,15.5a13,13,0,0,0-3.67,4.65l-0.13.25,5.09,7.28,0.35-.71a10.58,10.58,0,0,1,3.26-4.47l20.08-14.05c2.91-2,4.16-4,4-6.28a6.28,6.28,0,0,0,2.36.5,7.05,7.05,0,0,0,4.06-1.48l19.06-13.35A8.07,8.07,0,0,0,494.26,473Zm-7.09,4.78-20.25,14.17-4.19-6,0.26-.18,20.25-14.17,4.19,6Z" transform="translate(-126.24 -180.31)"/><path class="cls-3" d="M517.61,499.79a8,8,0,0,0-2.79-5.52L502.94,484l-48.61,56.41,11.88,10.24a8.06,8.06,0,0,0,11.39-.85l14.59-16.93c2.32-2.69,3-4.91,2.29-7.06a7.76,7.76,0,0,0,1,.07,6.38,6.38,0,0,0,5-2.6l15.19-17.63A8,8,0,0,0,517.61,499.79Zm-30,25.82-16.14,18.72-5.53-4.77,16.34-19,5.54,4.77Zm5.34-6.68-5.06-4.37,15.93-18.49,5.06,4.36Z" transform="translate(-126.24 -180.31)"/></svg>