<svg xmlns="http://www.w3.org/2000/svg" viewBox="0 0 22 32">
    <title>location</title>
    <path d="M18,34a1,1,0,0,1-.69-0.27l-0.21-.19C10.59,27.58,7,20.28,7,13A10.64,10.64,0,0,1,18,2,10.76,10.76,0,0,1,29,13c0,7.4-3.49,14.49-10.08,20.51l-0.23.21A1,1,0,0,1,18,34ZM18,4a8.7,8.7,0,0,0-9,9c0,6.55,3.19,13.15,9,18.64,5.89-5.54,9-12,9-18.64A8.7,8.7,0,0,0,18,4Z"
          transform="translate(-7 -2)"/>
    <path d="M18,18a5,5,0,1,1,5-5A5,5,0,0,1,18,18Zm0-8a3,3,0,1,0,3,3A3,3,0,0,0,18,10Z" transform="translate(-7 -2)"/>
</svg>